<?xml version="1.0" encoding="UTF-8" standalone="no"?>
<svg
   viewBox="0 0 576 512"
   version="1.1"
   id="svg1"
   sodipodi:docname="diagram-project-solid.svg"
   inkscape:version="1.3 (0e150ed, 2023-07-21)"
   xmlns:inkscape="http://www.inkscape.org/namespaces/inkscape"
   xmlns:sodipodi="http://sodipodi.sourceforge.net/DTD/sodipodi-0.dtd"
   xmlns="http://www.w3.org/2000/svg"
   xmlns:svg="http://www.w3.org/2000/svg">
  <defs
     id="defs1" />
  <sodipodi:namedview
     id="namedview1"
     pagecolor="#ffffff"
     bordercolor="#000000"
     borderopacity="0.25"
     inkscape:showpageshadow="2"
     inkscape:pageopacity="0.0"
     inkscape:pagecheckerboard="0"
     inkscape:deskcolor="#d1d1d1"
     inkscape:zoom="1.3489583"
     inkscape:cx="288"
     inkscape:cy="256.12355"
     inkscape:window-width="1392"
     inkscape:window-height="1212"
     inkscape:window-x="0"
     inkscape:window-y="25"
     inkscape:window-maximized="0"
     inkscape:current-layer="svg1" />
  <!--! Font Awesome Pro 6.4.0 by @fontawesome - https://fontawesome.com License - https://fontawesome.com/license (Commercial License) Copyright 2023 Fonticons, Inc. -->
  <path
     d="M0 80C0 53.5 21.5 32 48 32h96c26.5 0 48 21.5 48 48V96H384V80c0-26.5 21.5-48 48-48h96c26.5 0 48 21.5 48 48v96c0 26.5-21.5 48-48 48H432c-26.5 0-48-21.5-48-48V160H192v16c0 1.7-.1 3.4-.3 5L272 288h96c26.5 0 48 21.5 48 48v96c0 26.5-21.5 48-48 48H272c-26.5 0-48-21.5-48-48V336c0-1.7 .1-3.4 .3-5L144 224H48c-26.5 0-48-21.5-48-48V80z"
     id="path1" />
  <path
     style="fill:#ffffff;stroke:#000000;stroke-width:0.370656"
     d="m 267.24324,479.28672 c -6.82383,-0.77594 -10.68023,-1.97106 -17.10269,-5.30023 C 239.24884,468.3406 230.70098,458.3 226.68031,446.42929 l -2.06255,-6.08952 -0.19277,-55.05774 -0.19278,-55.05775 -40.02745,-53.35924 -40.02745,-53.35925 H 93.149319 c -48.390008,0 -51.323992,-0.0757 -56.75382,-1.46442 C 18.783622,217.53701 5.5092845,203.69752 1.537059,185.69884 0.4450709,180.7509 0.33375983,174.14235 0.52566968,125.65251 L 0.74131274,71.166023 2.7198378,65.606178 C 5.7376151,57.125933 8.2498137,53.180144 14.777402,46.667948 21.159224,40.301171 27.417219,36.485306 35.583012,33.981548 39.734328,32.70869 43.7626,32.617761 96,32.617761 c 55.90368,0 55.97518,0.0019 61.1583,1.658198 12.80124,4.090618 23.45462,12.970411 29.13878,24.287748 4.01521,7.994381 4.7548,11.591829 5.14371,25.019305 L 191.80043,96 H 288 384.19957 l 0.32778,-12.416988 c 0.35578,-13.478231 1.58469,-18.86004 6.22086,-27.243244 3.1421,-5.68161 13.06815,-15.151644 19.19774,-18.315755 11.0005,-5.678497 7.47276,-5.406252 70.05405,-5.406252 55.90368,0 55.97518,0.0019 61.1583,1.658198 15.87312,5.072233 27.3495,16.580388 32.72226,32.812844 1.24678,3.766861 1.36701,8.22474 1.57946,58.563707 0.20479,48.5237 0.0957,55.09493 -0.99708,60.04633 -3.97223,17.99868 -17.24656,31.83817 -34.85844,36.34253 -5.44424,1.3924 -8.37562,1.46442 -59.6045,1.46442 -51.22888,0 -54.16026,-0.072 -59.6045,-1.46442 -13.86902,-3.5471 -25.704,-13.41207 -31.59378,-26.33481 -3.2649,-7.16349 -4.43106,-13.88412 -4.43106,-25.5363 V 159.7529 H 288 191.62934 v 11.03295 11.03295 l 39.84556,53.03205 39.84556,53.03205 51.8919,0.28349 c 46.11413,0.25192 52.38712,0.42423 56.33976,1.54758 15.44204,4.38866 27.54065,15.57241 33.44867,30.91937 l 2.13435,5.54427 v 57.45173 c 0,64.23414 0.3672,59.4411 -5.42378,70.79537 -3.71567,7.28525 -12.69208,16.1187 -20.15151,19.83059 -11.0161,5.48171 -8.54175,5.27782 -65.97684,5.43676 -28.33668,0.0784 -53.68957,-0.10399 -56.33977,-0.40534 z"
     id="path2" />
</svg>
